<svg xmlns="http://www.w3.org/2000/svg" xmlns:xlink="http://www.w3.org/1999/xlink" width="500" zoomAndPan="magnify" viewBox="0 0 375 374.999991" height="500" preserveAspectRatio="xMidYMid meet" version="1.0"><defs><clipPath id="dc5c351a1d"><path d="M 43 51.902344 L 343 51.902344 L 343 333.902344 L 43 333.902344 Z M 43 51.902344 " clip-rule="nonzero"/></clipPath></defs><rect x="-37.5" width="450" fill="#ffffff" y="-37.499999" height="449.999989" fill-opacity="1"/><rect x="-37.5" width="450" fill="#ffffff" y="-37.499999" height="449.999989" fill-opacity="1"/><g clip-path="url(#dc5c351a1d)"><path fill="#ff3131" d="M 70.164062 79.425781 C 87.777344 61.757812 111.019531 52.769531 134.257812 52.410156 C 151.449219 52.113281 168.640625 56.542969 183.796875 65.648438 C 179.902344 68.765625 173.554688 75.773438 170.140625 79.785156 C 159.117188 73.914062 146.777344 71.160156 134.617188 71.398438 C 116.109375 71.640625 97.71875 78.886719 83.703125 92.902344 C 69.566406 106.921875 62.4375 125.308594 62.078125 143.820312 C 61.839844 162.449219 68.429688 181.078125 81.964844 195.574219 L 82.445312 196.171875 L 83.703125 197.3125 L 192.78125 306.449219 L 236.269531 262.960938 L 184.035156 210.726562 C 167.804688 194.496094 159 173.589844 157.261719 152.324219 C 155.644531 130.703125 161.515625 108.539062 174.871094 90.207031 L 174.992188 90.089844 L 175.472656 89.371094 L 175.589844 89.371094 L 176.070312 88.652344 L 176.070312 88.53125 L 176.191406 88.53125 L 176.429688 88.171875 L 177.027344 87.453125 L 177.027344 87.332031 L 177.269531 87.09375 C 177.867188 86.375 178.285156 85.835938 178.765625 85.238281 C 179.003906 84.996094 179.542969 84.339844 180.382812 83.378906 L 180.742188 83.019531 L 180.863281 82.902344 L 181.339844 82.300781 L 182.238281 81.285156 L 182.359375 81.285156 L 183.855469 79.667969 L 183.976562 79.546875 L 184.335938 79.066406 L 184.457031 79.066406 C 185.175781 78.347656 185.832031 77.691406 186.550781 76.96875 L 186.671875 76.96875 L 187.269531 76.371094 C 187.628906 76.011719 187.988281 75.652344 188.289062 75.472656 L 189.007812 74.753906 L 189.90625 74.035156 L 189.90625 73.914062 L 190.804688 73.195312 L 191.523438 72.476562 L 191.644531 72.476562 L 192.242188 72 L 193.261719 71.21875 L 193.382812 71.21875 C 201.527344 64.75 210.632812 60.078125 220.035156 56.84375 C 229.679688 53.609375 239.804688 51.992188 250.046875 51.992188 C 260.171875 51.992188 270.292969 53.609375 279.9375 56.84375 C 281.554688 57.441406 283.050781 57.980469 284.550781 58.582031 L 284.789062 58.699219 L 285.269531 58.820312 L 285.386719 58.941406 C 296.410156 63.433594 306.773438 70.082031 315.757812 79.066406 C 324.984375 88.292969 331.75 98.953125 336.363281 110.335938 C 336.363281 110.574219 336.484375 110.8125 336.601562 111.054688 C 341.457031 123.691406 343.492188 137.171875 342.714844 150.46875 C 341.457031 173.589844 332.230469 193.597656 316.476562 209.589844 L 316.476562 209.710938 C 316.238281 209.949219 315.996094 210.1875 315.757812 210.429688 L 258.253906 267.933594 L 192.78125 333.464844 L 70.164062 210.789062 L 70.046875 210.789062 L 61.421875 202.042969 L 62.019531 201.445312 C 49.019531 184.433594 42.671875 163.945312 43.03125 143.640625 C 43.511719 120.277344 52.496094 97.039062 70.164062 79.425781 Z M 249.808594 249.542969 L 302.039062 197.3125 C 314.917969 184.3125 322.046875 167.78125 323.304688 150.828125 C 324.085938 139.566406 322.527344 128.066406 318.273438 117.34375 C 318.152344 117.105469 318.035156 116.863281 317.914062 116.625 C 314.320312 108.117188 309.167969 100.09375 302.28125 93.144531 L 301.921875 92.664062 C 294.671875 85.535156 286.285156 80.144531 277.300781 76.550781 C 277.0625 76.429688 276.941406 76.3125 276.703125 76.3125 C 275.683594 75.832031 274.605469 75.53125 273.585938 75.171875 C 268.617188 73.4375 263.585938 72.296875 258.433594 71.699219 L 258.074219 71.699219 L 257.714844 71.578125 L 256.875 71.578125 L 256.15625 71.460938 L 256.035156 71.460938 C 254.300781 71.339844 252.5625 71.21875 250.886719 71.21875 C 247.652344 71.101562 244.355469 71.339844 241.003906 71.699219 L 240.703125 71.699219 L 240.582031 71.820312 L 240.222656 71.820312 C 235.371094 72.417969 230.578125 73.554688 225.847656 75.171875 C 218.359375 77.691406 211.113281 81.523438 204.703125 86.433594 L 203.804688 87.214844 L 203.324219 87.574219 L 202.726562 88.050781 L 202.605469 88.050781 L 201.886719 88.652344 L 201.167969 89.371094 L 200.449219 89.96875 L 199.730469 90.6875 L 199.609375 90.6875 L 199.132812 91.167969 C 198.53125 91.644531 197.992188 92.183594 197.515625 92.785156 L 197.035156 93.261719 L 195.777344 94.523438 L 195 95.300781 L 195 95.421875 L 194.519531 95.898438 C 194.039062 96.5 193.5 97.039062 193.023438 97.636719 C 192.542969 98.234375 192.125 98.65625 191.765625 99.132812 L 191.164062 99.914062 L 190.925781 100.152344 L 191.046875 100.152344 L 190.925781 100.273438 L 190.804688 100.273438 L 190.324219 100.871094 L 189.964844 101.46875 L 189.847656 101.589844 C 179.246094 116.085938 174.691406 133.695312 175.949219 150.949219 C 177.328125 167.960938 184.335938 184.550781 197.335938 197.429688 Z M 285.808594 109.136719 C 295.691406 119.140625 300.664062 132.140625 300.664062 145.136719 C 300.664062 158.136719 295.691406 171.253906 285.808594 181.136719 C 275.804688 191.019531 262.804688 196.113281 249.808594 196.113281 C 236.6875 196.113281 223.691406 191.082031 213.808594 181.136719 C 203.804688 171.253906 198.832031 158.136719 198.832031 145.136719 C 198.832031 132.140625 203.804688 119.140625 213.808594 109.136719 C 223.691406 99.253906 236.6875 94.164062 249.808594 94.164062 C 262.804688 94.164062 275.804688 99.253906 285.808594 109.136719 Z M 272.210938 122.554688 C 265.980469 116.324219 257.835938 113.269531 249.808594 113.269531 C 241.660156 113.269531 233.453125 116.386719 227.285156 122.554688 C 221.054688 128.785156 218 136.929688 218 145.078125 C 218 153.222656 221.113281 161.429688 227.285156 167.601562 C 233.515625 173.828125 241.660156 176.882812 249.808594 176.882812 C 257.835938 176.882812 266.039062 173.769531 272.210938 167.601562 C 278.441406 161.371094 281.496094 153.222656 281.496094 145.078125 C 281.496094 136.929688 278.441406 128.785156 272.210938 122.554688 Z M 272.210938 122.554688 " fill-opacity="1" fill-rule="nonzero"/></g></svg>